<?xml version="1.0" encoding="UTF-8"?>
<svg version="1.1" xmlns="http://www.w3.org/2000/svg" width="2000" height="2000">
<path d="M0 0 C660 0 1320 0 2000 0 C2000 660 2000 1320 2000 2000 C1340 2000 680 2000 0 2000 C0 1340 0 680 0 0 Z " fill="#000000" transform="translate(0,0)"/>
<path d="M0 0 C53.42408079 -0.05135758 106.84816382 -0.09911911 160.27226257 -0.12702942 C161.06301644 -0.12744359 161.85377032 -0.12785776 162.66848642 -0.12828448 C179.8538964 -0.13726331 197.03930665 -0.14557384 214.22471728 -0.15319599 C222.65249712 -0.15693798 231.0802769 -0.16082765 239.50805664 -0.16479492 C240.34671988 -0.1651872 241.18538313 -0.16557948 242.04946041 -0.16598364 C269.23059975 -0.17876658 296.41172037 -0.2012997 323.59284838 -0.22889166 C351.52610551 -0.25719561 379.45935229 -0.27565777 407.39262353 -0.28174497 C411.33843654 -0.28260943 415.28424952 -0.28358634 419.23006248 -0.28463173 C420.39494586 -0.28493513 420.39494586 -0.28493513 421.58336223 -0.28524467 C434.08188145 -0.28878915 446.58036863 -0.30270155 459.07887478 -0.3204961 C471.64555895 -0.33816628 484.21221137 -0.34490181 496.77890752 -0.34050413 C503.5872295 -0.33842394 510.39545192 -0.34155808 517.20375824 -0.35761642 C523.437225 -0.37221168 529.67053454 -0.3729546 535.90400853 -0.36269668 C538.15856665 -0.3614288 540.41313456 -0.36523735 542.66767339 -0.37464955 C564.37747278 -0.46000995 564.37747278 -0.46000995 573 3 C573.64606416 3.25313282 574.29212831 3.50626565 574.95777017 3.76706916 C597.48472645 13.33190951 612.35565675 32.11573827 622 54 C626.06409324 64.74932805 623.80098455 75.69423783 621.375 86.5625 C621.10357178 87.82408936 620.83214355 89.08567871 620.55249023 90.38549805 C619.71771863 94.2606321 618.85975992 98.13033276 618 102 C617.50377145 104.25517868 617.00767181 106.51038572 616.51171875 108.765625 C615.53652133 113.18147678 614.55219662 117.59518901 613.5625 122.0078125 C611.86993756 129.56205373 610.21396485 137.12419518 608.5625 144.6875 C608.26701326 146.04012149 607.97152171 147.39274193 607.67602539 148.74536133 C607.08088071 151.47001412 606.48594737 154.19471298 605.89111328 156.91943359 C605.01042645 160.95301538 604.128467 164.98631808 603.24609375 169.01953125 C603.1020108 169.67816162 602.95792786 170.33679199 602.80947876 171.01538086 C602.0809398 174.34543712 601.35214507 177.67543723 600.62304688 181.00537109 C599.31578861 186.97704258 598.01001463 192.94901318 596.71318054 198.92295837 C595.99745895 202.21972751 595.28034147 205.51619184 594.5625 208.8125 C594.42006866 209.46666901 594.27763733 210.12083801 594.13088989 210.79483032 C591.64639519 222.18963521 589.04390287 233.55559245 586.42263794 244.91958618 C583.88928883 255.91976987 581.53142216 266.94487884 579.28881836 278.00854492 C577.3405363 287.54170186 575.19359335 297.02112237 573 306.5 C570.22337037 318.50079266 567.60318789 330.517218 565.14404297 342.58789062 C563.32310834 351.5066536 561.38284561 360.39360243 559.39013672 369.27539062 C557.21035834 379.00639354 555.10008554 388.75157068 553 398.5 C550.71726779 409.09008028 548.42217812 419.67673189 546.0625 430.25 C543.56223667 441.45373346 541.08703846 452.66281373 538.625 463.875 C538.3378009 465.18280426 538.3378009 465.18280426 538.0447998 466.51702881 C535.10544878 479.90778316 532.19930011 493.30550289 529.30966187 506.70706177 C526.98288992 517.49518527 524.62007788 528.27448281 522.21582031 539.0456543 C520.30989004 547.58826011 518.43068829 556.13657499 516.5625 564.6875 C516.34314285 565.69147324 516.34314285 565.69147324 516.11935425 566.71572876 C515.37633842 570.11690503 514.63365358 573.51815348 513.89111328 576.91943359 C513.01042645 580.95301538 512.12846148 584.98631687 511.24609375 589.01953125 C511.10192017 589.67861481 510.95774658 590.33769836 510.8092041 591.01675415 C510.08239281 594.33906606 509.3552015 597.66129423 508.62744141 600.98339844 C507.14862948 607.73592988 505.67621744 614.48976567 504.21484375 621.24609375 C501.49537164 633.8073188 498.74599312 646.36171535 495.8125 658.875 C495.47400024 660.35311157 495.47400024 660.35311157 495.12866211 661.86108398 C492.30082439 673.72854542 487.9596365 682.16916289 480.22119141 691.51611328 C479.17955804 692.78181652 478.17019792 694.07396559 477.16796875 695.37109375 C462.81329303 713.03090925 435.84201109 730.82124093 412.89779589 733.21975788 C400.11669758 734.18786853 387.24027292 733.9013468 374.43373358 733.81245935 C368.91462728 733.78196407 363.39557077 733.79247835 357.87640381 733.79777527 C348.33623093 733.80142909 338.79639559 733.77964206 329.2563076 733.7401104 C315.46334528 733.68299342 301.67054461 733.66496708 287.87747685 733.65619446 C265.49415601 733.6409096 243.11099911 733.59448243 220.7277832 733.52807617 C198.99667283 733.46367946 177.26561064 733.41414617 155.53442383 733.38452148 C154.52783808 733.38314046 154.52783808 733.38314046 153.50091726 733.38173154 C146.76125627 733.37250108 140.0215949 733.36357051 133.28193321 733.35485952 C76.85449611 733.28189926 20.4272576 733.15849262 -36 733 C-35.36859453 727.77681023 -34.59393233 722.71384941 -33.46875 717.56640625 C-33.24136391 716.51931992 -33.24136391 716.51931992 -33.00938416 715.45108032 C-32.50965367 713.154131 -32.00487118 710.85832438 -31.5 708.5625 C-31.14302363 706.92690179 -30.78634048 705.29123955 -30.42993164 703.65551758 C-29.48411747 699.31965299 -28.53372352 694.9848061 -27.58184814 690.65026855 C-27.0055189 688.0251381 -26.43008933 685.39981213 -25.85498047 682.77441406 C-23.95757474 674.1131675 -22.05671086 665.45268731 -20.15234375 656.79296875 C-18.26195807 648.19667718 -16.37916473 639.59875143 -14.5 631 C-10.92470098 614.64479827 -7.33457173 598.2928614 -3.74336243 581.94114685 C-2.39643152 575.80744429 -1.0513672 569.67333427 0.29296875 563.5390625 C1.04933816 560.08851074 1.8058631 556.63799311 2.5625 553.1875 C2.74855804 552.33895447 2.93461609 551.49040894 3.12631226 550.6161499 C5.79076183 538.46818153 8.48148283 526.32626917 11.1875 514.1875 C13.77401999 502.58373565 16.31042 490.97075467 18.78857422 479.34326172 C21.64029228 465.96948922 24.57270038 452.61345107 27.50457764 439.25708008 C28.01767735 436.91946427 28.53058948 434.58180738 29.04345703 432.24414062 C31.11505681 422.80197352 33.1877986 413.36005749 35.26121521 403.91828918 C36.59369003 397.85053455 37.9258648 391.78271412 39.2578125 385.71484375 C39.44298935 384.87130341 39.6281662 384.02776306 39.81895447 383.15866089 C40.75370844 378.90043618 41.68822518 374.64215963 42.62231445 370.38378906 C44.31529608 362.66684634 46.00995447 354.95029149 47.71315002 347.2355957 C48.66406715 342.92814683 49.61365082 338.62040485 50.5625 334.3125 C50.74940399 333.46403503 50.93630798 332.61557007 51.12887573 331.74139404 C54.02178481 318.59476599 56.81065833 305.42848012 59.55740356 292.25064087 C62.06326359 280.2465256 64.73141874 268.28757262 67.50027466 256.34161377 C70.14397541 244.92285332 72.61500826 233.47544367 75 222 C77.53541689 209.80078221 80.18904667 197.63866994 83 185.5 C85.75233733 173.57805246 88.44415711 161.64411382 91.01196289 149.6809082 C91.37599471 147.99086424 91.74345163 146.30155404 92.11450195 144.61303711 C92.6290035 142.26742573 93.13062384 139.91941518 93.62890625 137.5703125 C93.86100548 136.52902695 93.86100548 136.52902695 94.09779358 135.46670532 C94.88509188 131.67546932 95.18378774 128.71518912 94 125 C92.25080276 122.44175596 92.25080276 122.44175596 90 119.9375 C86.86711603 116.23589217 83.82855498 112.51873301 80.9375 108.625 C76.7947941 103.04855762 72.59202464 97.52044123 68.375 92 C63.00401347 84.96517183 57.67123903 77.90374513 52.375 70.8125 C46.9470267 63.54855257 41.42606127 56.36431703 35.84277344 49.21923828 C32.01936426 44.32314438 28.26136153 39.38472368 24.55078125 34.40234375 C20.3318086 28.75399239 16.03638118 23.16293017 11.75830078 17.55932617 C10.45395002 15.85002782 9.15116025 14.13953691 7.85009766 12.42773438 C6.63259133 10.83009873 5.40846363 9.23748379 4.17724609 7.65039062 C3.62762207 6.93560547 3.07799805 6.22082031 2.51171875 5.484375 C2.02533936 4.85756836 1.53895996 4.23076172 1.0378418 3.58496094 C0 2 0 2 0 0 Z " fill="#000000" transform="translate(428,570)"/>
<path d="M0 0 C61.05 0 122.1 0 185 0 C185 22.96786122 185 22.96786122 184.75634766 30.13647461 C184.73025421 30.98305885 184.70416077 31.8296431 184.67727661 32.70188141 C184.59238289 35.43546691 184.50321822 38.16889427 184.4140625 40.90234375 C184.35200657 42.88069172 184.29027869 44.85905001 184.22885132 46.8374176 C184.09831822 51.02740536 183.96611818 55.21733544 183.83251953 59.40722656 C183.47655379 70.58242838 183.13279204 81.75800999 182.7890625 92.93359375 C182.75445168 94.05626522 182.71984085 95.17893669 182.68418121 96.33562851 C182.07986526 115.96820436 181.54540011 135.60182527 181.05641937 155.23757172 C180.29513232 185.76533712 179.42505145 216.28926178 178.5 246.8125 C178.46735046 247.89069881 178.43470093 248.96889763 178.40106201 250.07976913 C177.70151148 273.15437765 176.98798379 296.22753502 176.11419678 319.29629517 C175.09974237 346.0904163 174.33284844 372.89152524 173.58349609 399.69418335 C173.4470661 404.57366508 173.30836159 409.45307278 173.16748047 414.33242798 C172.50642327 437.30059833 171.87441587 460.26306669 171.8515625 483.2421875 C171.84958233 484.05213291 171.84760216 484.86207832 171.84556198 485.69656754 C171.84209101 487.92652148 171.84621674 490.15629063 171.85400391 492.38623047 C171.85927597 494.24415726 171.85927597 494.24415726 171.86465454 496.13961792 C171.80417557 498.94538384 171.80417557 498.94538384 173 501 C181.68101704 480.12699157 190.32932112 459.24132816 198.875 438.3125 C205.0483323 423.19373716 211.25739945 408.09029429 217.5 393 C223.69948709 378.01329701 229.86798571 363.0144371 236 348 C242.52693401 332.01858908 249.09909281 316.05641241 255.69775391 300.10449219 C261.49720166 286.08265318 267.26290621 272.04746136 273 258 C279.13201473 242.98556183 285.30072243 227.98679027 291.5 213 C297.7595581 197.86651219 303.99162275 182.72217562 310.1875 167.5625 C310.55621216 166.66045837 310.92492432 165.75841675 311.30480957 164.82904053 C312.77520042 161.23163514 314.24543499 157.63416593 315.71548462 154.03662109 C319.37858195 145.07240202 323.04441166 136.10930721 326.71621704 127.14865112 C327.39143214 125.50032898 328.06623474 123.85183778 328.74057007 122.20315552 C329.37190022 120.65968314 330.00378721 119.1164384 330.63627625 117.57344055 C331.23475545 116.11314007 331.83189301 114.65228888 332.42756653 113.19084167 C333.83445675 109.75637072 335.27955436 106.34931741 336.81835938 102.97167969 C337.10447083 102.33571869 337.39058228 101.69975769 337.68536377 101.04452515 C338.45939887 99.33510991 339.24911906 97.63282104 340.04003906 95.93115234 C341.10781234 92.67080495 341.12668582 91.2083086 340 88 C338.82050086 85.9872336 338.82050086 85.9872336 337.26171875 84.13671875 C336.69533691 83.42346436 336.12895508 82.71020996 335.54541016 81.9753418 C334.9322998 81.220354 334.31918945 80.46536621 333.6875 79.6875 C332.39594262 78.06344788 331.10559802 76.4384306 329.81640625 74.8125 C329.16945801 74.00039063 328.52250977 73.18828125 327.85595703 72.3515625 C325.21753251 69.00858631 322.66517177 65.60539301 320.125 62.1875 C315.50291661 55.98625027 310.82340655 49.83109631 306.125 43.6875 C300.2806522 36.03818782 294.51598379 28.33569718 288.828125 20.56933594 C286.28673767 17.09936478 283.73816647 13.63809556 281.12890625 10.21875 C280.70085693 9.65679932 280.27280762 9.09484863 279.83178711 8.51586914 C278.71736462 7.05830463 277.59721832 5.6051212 276.4765625 4.15234375 C275 2 275 2 275 0 C370.7 0 466.4 0 565 0 C564.26116245 4.43302528 563.70481385 7.13649559 561.98144531 11.05444336 C561.3530349 12.49711578 561.3530349 12.49711578 560.71192932 13.96893311 C560.2552739 14.99883362 559.79861847 16.02873413 559.328125 17.08984375 C558.85434921 18.17348206 558.38057343 19.25712036 557.8924408 20.37359619 C556.87758238 22.69323121 555.85974118 25.0115631 554.83920288 27.32870483 C552.17216837 33.38506262 549.52697512 39.45095698 546.87890625 45.515625 C546.35907669 46.70451828 545.83924713 47.89341156 545.30366516 49.11833191 C541.5213377 57.77698222 537.81237663 66.46193002 534.1875 75.1875 C529.4064594 86.67800223 524.53633337 98.12719427 519.625 109.5625 C512.66112559 125.78048895 505.72581082 142.01038963 498.8125 158.25 C498.33016907 159.38293488 497.84783813 160.51586975 497.35089111 161.68313599 C494.88550552 167.47418616 492.42044927 173.26537645 489.95556641 179.05664062 C484.66256198 191.49205185 479.36537238 203.92568101 474.06890869 216.35961914 C472.63575598 219.72410964 471.20263214 223.08861243 469.76953125 226.453125 C469.05947937 228.12012451 469.05947937 228.12012451 468.33508301 229.82080078 C465.40885687 236.69113564 462.48365411 243.56190532 459.55917358 250.4329834 C450.03713777 272.80494382 440.5072544 295.17329489 430.91986084 317.51733398 C421.55501854 339.34526494 412.25745168 361.20182592 402.95556641 383.05664062 C397.66256198 395.49205185 392.36537238 407.92568101 387.06890869 420.35961914 C385.63575598 423.72410964 384.20263214 427.08861243 382.76953125 430.453125 C382.05947937 432.12012451 382.05947937 432.12012451 381.33508301 433.82080078 C378.40885687 440.69113564 375.48365411 447.56190532 372.55917358 454.4329834 C363.03713777 476.80494382 353.5072544 499.17329489 343.91986084 521.51733398 C335.06839068 542.14867761 326.27747953 562.80576041 317.48614502 583.46278381 C313.95382983 591.76181021 310.41720378 600.0589914 306.87890625 608.35546875 C304.87741516 613.0493986 302.87616869 617.74343269 300.875 622.4375 C300.39227631 623.56960907 299.90955261 624.70171814 299.41220093 625.86813354 C294.81645309 636.64858925 290.2244872 647.43027938 285.703125 658.2421875 C285.22959091 659.37446526 285.22959091 659.37446526 284.74649048 660.52961731 C283.3391119 663.89792269 281.93574257 667.26782768 280.53857422 670.64038086 C280.07467285 671.75550049 279.61077148 672.87062012 279.1328125 674.01953125 C278.73980957 674.96932861 278.34680664 675.91912598 277.94189453 676.89770508 C277 679 277 679 276 680 C274.4882886 680.09683929 272.9720461 680.12371721 271.45723629 680.12304783 C270.46944429 680.12503888 269.4816523 680.12702993 268.46392721 680.12908131 C267.36570168 680.12616847 266.26747616 680.12325563 265.13597107 680.12025452 C263.40122146 680.12153615 263.40122146 680.12153615 261.63142639 680.12284368 C258.40702557 680.12421183 255.18266441 680.12106449 251.95826828 680.11606562 C248.48654244 680.11176433 245.01481858 680.11320732 241.54309082 680.1139679 C235.52333063 680.11449334 229.50358125 680.11134445 223.48382378 680.10573006 C214.78016672 680.09761776 206.07651491 680.09500011 197.37285448 680.09374207 C183.25320536 680.09155112 169.133562 680.08488988 155.01391602 680.07543945 C141.29451527 680.06626643 127.57511608 680.05918506 113.85571289 680.05493164 C113.01065587 680.05466892 112.16559884 680.05440619 111.29493403 680.05413551 C107.05571251 680.05283051 102.81649097 680.05156679 98.57726943 680.05032361 C63.38484218 680.03994967 28.19242162 680.0223302 -7 680 C-7.04837616 646.81116539 -6.94848463 613.62596105 -6.68650627 580.43814421 C-6.66070787 577.16683268 -6.63528961 573.89551846 -6.61002836 570.62420275 C-5.89128879 477.72816745 -4.81619774 384.83499009 -3.80045199 291.94184974 C-3.56897214 270.7672641 -3.34075658 249.59264452 -3.11399025 228.41800801 C-2.87769101 206.35583345 -2.63927316 184.2936827 -2.39858294 162.23155558 C-2.26484389 149.96966447 -2.13187181 137.70776637 -2.00114441 125.44584274 C-1.89066763 115.08561573 -1.77814956 104.7254132 -1.66313922 94.36523549 C-1.60489513 89.11394941 -1.54747698 83.86265845 -1.49262428 78.61133575 C-1.44205484 73.77246 -1.38869637 68.933622 -1.33345062 64.09479745 C-1.31432394 62.38197728 -1.29606593 60.66914703 -1.27897853 58.95630531 C-1.08156679 39.29746095 -0.49141673 19.6566692 0 0 Z " fill="#000000" transform="translate(1102,597)"/>
<path d="M0 0 C78.54 0 157.08 0 238 0 C236.85452138 50.40105934 236.85452138 50.40105934 236.39955521 64.64300156 C236.30969457 67.45621207 236.22233209 70.26949338 236.13534546 73.08279419 C236.00998999 77.13083474 235.88379087 81.17884742 235.75680542 85.22683716 C235.4181513 96.03386309 235.08699443 106.84111933 234.7578125 117.6484375 C234.72481741 118.73123804 234.69182232 119.81403858 234.65782738 120.92965126 C234.04719259 141.01963333 233.50344144 161.11090751 232.99695969 181.20375824 C231.7764692 229.62012331 230.31955311 278.02467802 228.5612793 326.42483521 C228.16821869 337.25111332 227.77853669 348.07737657 227.43899536 358.90548706 C227.37892793 360.81277843 227.31638171 362.71999127 227.25366211 364.62719727 C226.9763373 373.75317829 226.96267368 382.87094894 227 392 C227.40089844 391.02281006 227.80179688 390.04562012 228.21484375 389.03881836 C228.48419235 388.38228271 228.75354095 387.72574707 229.03105164 387.04931641 C229.64760271 385.54646992 230.26414917 384.04362154 230.88069153 382.54077148 C232.65171867 378.22383334 234.42283444 373.90693158 236.1940918 369.59008789 C239.78344308 360.8420064 243.37190153 352.09356249 246.95703125 343.34375 C254.5145382 324.90204908 262.10309151 306.47345345 269.71743774 288.05514526 C275.49091517 274.08888782 281.24208588 260.1137296 286.97125244 246.12924194 C292.01547555 233.81817207 297.08681216 221.51850269 302.17105103 209.22390747 C309.08054454 192.51526661 315.96551245 175.79686063 322.8125 159.0625 C323.18518005 158.15214996 323.55786011 157.24179993 323.9418335 156.30386353 C325.6737724 152.07232879 327.40167413 147.83928299 329.11962891 143.60205078 C330.3437808 140.58773958 331.59670679 137.58827059 332.87646484 134.59716797 C333.30834358 133.56951576 333.30834358 133.56951576 333.74894714 132.52110291 C334.51533243 130.69862638 335.29367499 128.88119073 336.07299805 127.06420898 C337.07513591 123.75163793 337.12821492 122.23541177 336 119 C334.88303511 116.97749433 334.88303511 116.97749433 333.40234375 115.09375 C332.85642578 114.36091797 332.31050781 113.62808594 331.74804688 112.87304688 C331.15056641 112.08994141 330.55308594 111.30683594 329.9375 110.5 C329.31552734 109.67048828 328.69355469 108.84097656 328.05273438 107.98632812 C326.04559791 105.31613762 324.02483778 102.65678739 322 100 C321.33887207 99.13117188 320.67774414 98.26234375 319.99658203 97.3671875 C317.32498052 93.85829651 314.65123926 90.35107802 311.97119141 86.84863281 C307.5220255 81.02743482 303.1433425 75.15965677 298.8125 69.25 C292.89346276 61.17677229 286.84745659 53.20976743 280.74658203 45.2734375 C272.10958689 34.03109772 263.51157489 22.75950112 255.0625 11.375 C254.16640015 10.17544678 254.16640015 10.17544678 253.25219727 8.95166016 C252.70619873 8.21222168 252.1602002 7.4727832 251.59765625 6.7109375 C251.11820557 6.06431152 250.63875488 5.41768555 250.14477539 4.75146484 C249 3 249 3 248 0 C374.39 0 500.78 0 631 0 C627.62319328 10.13042017 627.62319328 10.13042017 625.671875 14.76171875 C625.21377441 15.85258789 624.75567383 16.94345703 624.28369141 18.06738281 C623.52451416 19.85934082 623.52451416 19.85934082 622.75 21.6875 C622.19563443 23.00220852 621.64144254 24.31699027 621.08740234 25.63183594 C619.06537001 30.42424116 617.03330161 35.21236709 615 40 C614.57988647 40.98929504 614.15977295 41.97859009 613.72692871 42.99786377 C603.73607863 66.51884003 593.71585669 90.02729508 583.63702393 113.51071167 C577.73338978 127.26748784 571.86478366 141.0391224 566 154.8125 C565.26816498 156.53114761 565.26816498 156.53114761 564.52154541 158.28451538 C560.03244421 168.82721887 555.5445325 179.37042853 551.05761719 189.9140625 C548.16393163 196.71376315 545.26976167 203.5132574 542.375 210.3125 C541.89812744 211.43258453 541.42125488 212.55266907 540.92993164 213.70669556 C533.71337345 230.65440961 526.46758747 247.58941573 519.20544434 264.51763916 C512.32209982 280.5644077 505.46478714 296.62211807 498.625 312.6875 C498.14973877 313.80379791 497.67447754 314.92009583 497.18481445 316.07022095 C494.28187531 322.8891886 491.37968507 329.70847484 488.47766113 336.52783203 C483.98628124 347.08155443 479.49358871 357.6347179 475 368.1875 C474.51291565 369.33141205 474.0258313 370.4753241 473.52398682 371.65390015 C467.57834455 385.61586382 461.6195708 399.57202084 455.63427734 413.51702881 C446.71253304 434.30676496 437.86470256 455.12808526 429.00390625 475.94384766 C426.07636178 482.82099627 423.14775484 489.697692 420.21875 496.57421875 C419.7463942 497.68319016 419.27403839 498.79216156 418.78736877 499.93473816 C416.87953077 504.4137807 414.97164187 508.89280154 413.06369019 513.37179565 C408.2785711 524.60506846 403.49378561 535.83848116 398.71316528 547.07366943 C388.50587002 571.06222029 378.27659953 595.04104808 368 619 C359.91720698 637.84553319 351.85035486 656.6977511 343.8125 675.5625 C343.09039337 677.25697769 343.09039337 677.25697769 342.35369873 678.98568726 C337.77874336 689.72434319 333.21080168 700.4656349 328.70703125 711.234375 C328.39109512 711.98972031 328.075159 712.74506561 327.74964905 713.52330017 C326.34108754 716.8938546 324.93645921 720.26597398 323.53833008 723.64086914 C322.84259888 725.31330688 322.84259888 725.31330688 322.1328125 727.01953125 C321.73980957 727.96932861 321.34680664 728.91912598 320.94189453 729.89770508 C320 732 320 732 319 733 C317.25892848 733.09736384 315.51386363 733.12371467 313.77007198 733.12304783 C312.62901058 733.12503888 311.48794918 733.12702993 310.31231016 733.12908131 C309.04288291 733.12616847 307.77345566 733.12325563 306.46556091 733.12025452 C305.11588793 733.1206901 303.76621503 733.12156477 302.41654259 733.12284368 C298.6904766 733.12509117 294.96443909 733.12106391 291.23837674 733.11606562 C287.22676855 733.11176493 283.21516209 733.11320727 279.20355225 733.1139679 C272.24743199 733.11449337 265.29132108 733.11134409 258.33520317 733.10573006 C248.27770624 733.09761827 238.22021386 733.09500017 228.16271401 733.09374207 C211.84683607 733.09155104 195.53096312 733.08488958 179.21508789 733.07543945 C163.36157252 733.06626664 147.5080585 733.05918517 131.65454102 733.05493164 C130.67805619 733.05466892 129.70157135 733.05440619 128.69549607 733.05413551 C123.79697542 733.05283051 118.89845475 733.0515668 113.99993408 733.05032361 C73.33328591 733.03994941 32.66664324 733.02232973 -8 733 C-7.77691804 708.43449862 -7.55062574 683.86902821 -7.32132149 659.3035841 C-7.21470526 647.8751711 -7.10884659 636.44675245 -7.00537109 625.01831055 C-6.44946521 563.69426531 -5.76435119 502.37270413 -4.99833775 441.0509944 C-4.84493798 428.77057437 -4.69182171 416.49015088 -4.53955078 404.2097168 C-4.52852325 403.32039141 -4.51749573 402.43106601 -4.50613403 401.51479137 C-3.94368656 356.12095563 -3.43326522 310.72655276 -2.9296875 265.33203125 C-2.90761212 263.34313511 -2.88553599 261.35423898 -2.86345911 259.36534286 C-2.61022413 236.54700539 -2.3583716 213.72865279 -2.10729803 190.91029146 C-1.93837889 175.5584345 -1.76895937 160.20658314 -1.59912109 144.85473633 C-1.58758708 143.81211881 -1.57605306 142.7695013 -1.56416953 141.69528931 C-1.47376996 133.52391397 -1.38334629 125.3525389 -1.29291511 117.18116391 C-0.86064671 78.12079017 -0.4304521 39.06039387 0 0 Z M26 27 C25.19454901 57.69864506 25.19454901 57.69864506 24.69665527 88.39877319 C24.67611642 90.23805617 24.65533156 92.0773364 24.63433218 93.91661417 C24.57902911 98.81995943 24.52709683 103.72333462 24.47587848 108.626724 C24.41932243 113.97963685 24.35942642 119.33251265 24.30000305 124.68539429 C24.18448375 135.13764519 24.07194821 145.58992607 23.96051371 156.04222123 C23.82905643 168.36309185 23.69466872 180.68393005 23.56025261 193.00476868 C23.31888028 215.13970978 23.08031278 237.27468022 22.84326172 259.40966797 C22.61676794 280.55878231 22.38799401 301.70787071 22.15673828 322.85693359 C20.61750637 461.24916881 20.61750637 461.24916881 19.37437248 599.64428377 C19.34463514 603.48717714 19.31434688 607.33006587 19.28401184 611.17295456 C19.23810778 617.03927134 19.19473464 622.9056018 19.15348244 628.77195311 C19.13922459 630.78330208 19.12451141 632.79464793 19.10915184 634.80598879 C18.92808058 658.87053891 19 682.93446667 19 707 C112.39 707 205.78 707 302 707 C305.70826265 698.96543091 309.36138756 690.95830978 312.80859375 682.81640625 C313.24772598 681.78386215 313.68685822 680.75131805 314.13929749 679.68748474 C315.57385951 676.31326325 317.00566478 672.93787938 318.4375 669.5625 C319.45812195 667.16071745 320.47895947 664.75902651 321.5 662.35742188 C323.35138818 658.00248681 325.20215705 653.64728965 327.05209541 649.29173851 C331.7205232 638.30051904 336.40083709 627.31436927 341.08181763 616.32849121 C343.46125256 610.74392858 345.84000537 605.15907544 348.21875 599.57421875 C348.69155899 598.46418488 349.16436798 597.354151 349.65150452 596.21047974 C352.60772094 589.26977042 355.56305721 582.32868693 358.51782227 575.38735962 C376.74798062 532.56126513 376.74798062 532.56126513 385.36572266 512.48297119 C394.28746696 491.69323504 403.13529744 470.87191474 411.99609375 450.05615234 C414.92363822 443.17900373 417.85224418 436.30230758 420.78125 429.42578125 C421.25387772 428.31617538 421.72650543 427.20656952 422.2134552 426.06333923 C424.11902067 421.58964421 426.02463398 417.11596957 427.93026733 412.64230347 C432.76833406 401.28439092 437.60605429 389.92633205 442.44082642 378.5670166 C451.96286223 356.19505618 461.4927456 333.82670511 471.08013916 311.48266602 C480.44498146 289.65473506 489.74254832 267.79817408 499.04443359 245.94335938 C504.33743802 233.50794815 509.63462762 221.07431899 514.93109131 208.64038086 C516.36424402 205.27589036 517.79736786 201.91138757 519.23046875 198.546875 C519.94052063 196.87987549 519.94052063 196.87987549 520.66491699 195.17919922 C523.59114313 188.30886436 526.51634589 181.43809468 529.44082642 174.5670166 C538.95585328 152.21152366 548.47846184 129.85952315 558.05899048 107.53201294 C564.63444074 92.20609022 571.18071225 76.86778485 577.71704102 61.52514648 C578.49479353 59.69971985 579.27278658 57.87439571 580.05078125 56.04907227 C581.5032196 52.64104952 582.95487325 49.23269371 584.40625 45.82421875 C584.84183228 44.80228928 585.27741455 43.7803598 585.72619629 42.72746277 C586.33062561 41.30715508 586.33062561 41.30715508 586.94726562 39.8581543 C587.29712524 39.03663376 587.64698486 38.21511322 588.00744629 37.36869812 C588.33498901 36.58702774 588.66253174 35.80535736 589 35 C589.37233765 34.13667557 589.74467529 33.27335114 590.1282959 32.38386536 C591.17171402 29.95345115 591.17171402 29.95345115 591 27 C495.3 27 399.6 27 301 27 C302.52305875 30.80764687 303.35954037 32.7585667 305.765625 35.7578125 C306.59562012 36.80545776 306.59562012 36.80545776 307.44238281 37.87426758 C308.03889648 38.61700928 308.63541016 39.35975098 309.25 40.125 C314.37379859 46.60168925 319.37656207 53.14528219 324.25 59.8125 C329.254955 66.64753304 334.34365105 73.39859994 339.53027344 80.09716797 C344.76267603 86.87147791 349.95290476 93.67765115 355.11279297 100.50732422 C356.30760362 102.08546351 357.50663078 103.66042683 358.71142578 105.23095703 C360.17655089 107.14339306 361.62230664 109.06875974 363.0625 111 C363.85785156 112.051875 364.65320312 113.10375 365.47265625 114.1875 C367.36029639 117.66346139 367.06404684 118.26192697 366 122 C364.87757576 125.03741497 363.63330576 128.01895646 362.37890625 131.00390625 C362.00781235 131.89754379 361.63671844 132.79118134 361.25437927 133.7118988 C360.4499678 135.64770504 359.64349679 137.58265644 358.83520508 139.5168457 C357.10043207 143.66825435 355.37556023 147.82375211 353.65023804 151.97909546 C352.75556051 154.13377665 351.86039265 156.2882543 350.9647522 158.4425354 C346.97222049 168.04999163 343.02790634 177.67672607 339.09762573 187.30978394 C332.21030793 204.19019447 325.27111921 221.04861927 318.30224609 237.89550781 C312.50279834 251.91734682 306.73709379 265.95253864 301 280 C294.47306599 295.98141092 287.90090719 311.94358759 281.30224609 327.89550781 C275.50279834 341.91734682 269.73709379 355.95253864 264 370 C257.47306599 385.98141092 250.90090719 401.94358759 244.30224609 417.89550781 C238.13326934 432.81078984 232.00588424 447.74259079 225.90338135 462.68518066 C216.99971197 484.48325437 208.00360306 506.24305093 199 528 C196.6587397 523.31747941 197.81271458 516.49003505 197.8203125 511.2734375 C197.8205863 510.0652643 197.8205863 510.0652643 197.82086563 508.83268356 C197.85537867 480.7960624 198.85002663 452.76209106 199.66844392 424.73968482 C199.82887527 419.23767758 199.98568452 413.73557663 200.14013672 408.23339844 C200.16180475 407.46153531 200.18347279 406.68967218 200.20579743 405.89441925 C200.2274351 405.12362736 200.24907277 404.35283548 200.27136612 403.55868626 C201.16011082 371.90600958 202.12991216 340.25839626 203.29037476 308.61433411 C204.08126571 287.03477113 204.76244598 265.45257769 205.4084053 243.86823654 C205.50257951 240.72644375 205.59739588 237.58467085 205.69235229 234.44290161 C206.61843279 203.77316091 207.46966289 173.10214711 208.23836899 142.42807579 C208.64090656 126.37777333 209.06775604 110.32888688 209.56640625 94.28125 C209.589965 93.52058794 209.61352375 92.75992588 209.6377964 91.97621346 C209.86194606 84.74572116 210.08883112 77.51533453 210.32613659 70.28526115 C210.43052172 67.08477443 210.53120211 63.8841696 210.6328125 60.68359375 C210.67020035 59.58797119 210.7075882 58.49234863 210.74610901 57.36352539 C211.06368348 47.22849738 211 37.15922355 211 27 C149.95 27 88.9 27 26 27 Z " fill="#FBFBFB" transform="translate(1076,570)"/>
<path d="M0 0 C53.42408079 -0.05135758 106.84816382 -0.09911911 160.27226257 -0.12702942 C161.06301644 -0.12744359 161.85377032 -0.12785776 162.66848642 -0.12828448 C179.8538964 -0.13726331 197.03930665 -0.14557384 214.22471728 -0.15319599 C222.65249712 -0.15693798 231.0802769 -0.16082765 239.50805664 -0.16479492 C240.34671988 -0.1651872 241.18538313 -0.16557948 242.04946041 -0.16598364 C269.23059975 -0.17876658 296.41172037 -0.2012997 323.59284838 -0.22889166 C351.52610551 -0.25719561 379.45935229 -0.27565777 407.39262353 -0.28174497 C411.33843654 -0.28260943 415.28424952 -0.28358634 419.23006248 -0.28463173 C420.39494586 -0.28493513 420.39494586 -0.28493513 421.58336223 -0.28524467 C434.08188145 -0.28878915 446.58036863 -0.30270155 459.07887478 -0.3204961 C471.64555895 -0.33816628 484.21221137 -0.34490181 496.77890752 -0.34050413 C503.5872295 -0.33842394 510.39545192 -0.34155808 517.20375824 -0.35761642 C523.437225 -0.37221168 529.67053454 -0.3729546 535.90400853 -0.36269668 C538.15856665 -0.3614288 540.41313456 -0.36523735 542.66767339 -0.37464955 C564.37747278 -0.46000995 564.37747278 -0.46000995 573 3 C573.64606416 3.25313282 574.29212831 3.50626565 574.95777017 3.76706916 C597.48472645 13.33190951 612.35565675 32.11573827 622 54 C626.06409324 64.74932805 623.80098455 75.69423783 621.375 86.5625 C621.10357178 87.82408936 620.83214355 89.08567871 620.55249023 90.38549805 C619.71771863 94.2606321 618.85975992 98.13033276 618 102 C617.50377145 104.25517868 617.00767181 106.51038572 616.51171875 108.765625 C615.53652133 113.18147678 614.55219662 117.59518901 613.5625 122.0078125 C611.86993756 129.56205373 610.21396485 137.12419518 608.5625 144.6875 C608.26701326 146.04012149 607.97152171 147.39274193 607.67602539 148.74536133 C607.08088071 151.47001412 606.48594737 154.19471298 605.89111328 156.91943359 C605.01042645 160.95301538 604.128467 164.98631808 603.24609375 169.01953125 C603.1020108 169.67816162 602.95792786 170.33679199 602.80947876 171.01538086 C602.0809398 174.34543712 601.35214507 177.67543723 600.62304688 181.00537109 C599.31578861 186.97704258 598.01001463 192.94901318 596.71318054 198.92295837 C595.99745895 202.21972751 595.28034147 205.51619184 594.5625 208.8125 C594.42006866 209.46666901 594.27763733 210.12083801 594.13088989 210.79483032 C591.64639519 222.18963521 589.04390287 233.55559245 586.42263794 244.91958618 C583.88928883 255.91976987 581.53142216 266.94487884 579.28881836 278.00854492 C577.3405363 287.54170186 575.19359335 297.02112237 573 306.5 C570.22337037 318.50079266 567.60318789 330.517218 565.14404297 342.58789062 C563.32310834 351.5066536 561.38284561 360.39360243 559.39013672 369.27539062 C557.21035834 379.00639354 555.10008554 388.75157068 553 398.5 C550.71726779 409.09008028 548.42217812 419.67673189 546.0625 430.25 C543.56223667 441.45373346 541.08703846 452.66281373 538.625 463.875 C538.3378009 465.18280426 538.3378009 465.18280426 538.0447998 466.51702881 C535.10544878 479.90778316 532.19930011 493.30550289 529.30966187 506.70706177 C526.98288992 517.49518527 524.62007788 528.27448281 522.21582031 539.0456543 C520.30989004 547.58826011 518.43068829 556.13657499 516.5625 564.6875 C516.34314285 565.69147324 516.34314285 565.69147324 516.11935425 566.71572876 C515.37633842 570.11690503 514.63365358 573.51815348 513.89111328 576.91943359 C513.01042645 580.95301538 512.12846148 584.98631687 511.24609375 589.01953125 C511.10192017 589.67861481 510.95774658 590.33769836 510.8092041 591.01675415 C510.08239281 594.33906606 509.3552015 597.66129423 508.62744141 600.98339844 C507.14862948 607.73592988 505.67621744 614.48976567 504.21484375 621.24609375 C501.49537164 633.8073188 498.74599312 646.36171535 495.8125 658.875 C495.47400024 660.35311157 495.47400024 660.35311157 495.12866211 661.86108398 C492.30082439 673.72854542 487.9596365 682.16916289 480.22119141 691.51611328 C479.17955804 692.78181652 478.17019792 694.07396559 477.16796875 695.37109375 C462.81329303 713.03090925 435.84201109 730.82124093 412.89779589 733.21975788 C400.11669758 734.18786853 387.24027292 733.9013468 374.43373358 733.81245935 C368.91462728 733.78196407 363.39557077 733.79247835 357.87640381 733.79777527 C348.33623093 733.80142909 338.79639559 733.77964206 329.2563076 733.7401104 C315.46334528 733.68299342 301.67054461 733.66496708 287.87747685 733.65619446 C265.49415601 733.6409096 243.11099911 733.59448243 220.7277832 733.52807617 C198.99667283 733.46367946 177.26561064 733.41414617 155.53442383 733.38452148 C154.52783808 733.38314046 154.52783808 733.38314046 153.50091726 733.38173154 C146.76125627 733.37250108 140.0215949 733.36357051 133.28193321 733.35485952 C76.85449611 733.28189926 20.4272576 733.15849262 -36 733 C-35.36859453 727.77681023 -34.59393233 722.71384941 -33.46875 717.56640625 C-33.24136391 716.51931992 -33.24136391 716.51931992 -33.00938416 715.45108032 C-32.50965367 713.154131 -32.00487118 710.85832438 -31.5 708.5625 C-31.14302363 706.92690179 -30.78634048 705.29123955 -30.42993164 703.65551758 C-29.48411747 699.31965299 -28.53372352 694.9848061 -27.58184814 690.65026855 C-27.0055189 688.0251381 -26.43008933 685.39981213 -25.85498047 682.77441406 C-23.95757474 674.1131675 -22.05671086 665.45268731 -20.15234375 656.79296875 C-18.26195807 648.19667718 -16.37916473 639.59875143 -14.5 631 C-10.92470098 614.64479827 -7.33457173 598.2928614 -3.74336243 581.94114685 C-2.39643152 575.80744429 -1.0513672 569.67333427 0.29296875 563.5390625 C1.04933816 560.08851074 1.8058631 556.63799311 2.5625 553.1875 C2.74855804 552.33895447 2.93461609 551.49040894 3.12631226 550.6161499 C5.79076183 538.46818153 8.48148283 526.32626917 11.1875 514.1875 C13.77401999 502.58373565 16.31042 490.97075467 18.78857422 479.34326172 C21.64029228 465.96948922 24.57270038 452.61345107 27.50457764 439.25708008 C28.01767735 436.91946427 28.53058948 434.58180738 29.04345703 432.24414062 C31.11505681 422.80197352 33.1877986 413.36005749 35.26121521 403.91828918 C36.59369003 397.85053455 37.9258648 391.78271412 39.2578125 385.71484375 C39.44298935 384.87130341 39.6281662 384.02776306 39.81895447 383.15866089 C40.75370844 378.90043618 41.68822518 374.64215963 42.62231445 370.38378906 C44.31529608 362.66684634 46.00995447 354.95029149 47.71315002 347.2355957 C48.66406715 342.92814683 49.61365082 338.62040485 50.5625 334.3125 C50.74940399 333.46403503 50.93630798 332.61557007 51.12887573 331.74139404 C54.02178481 318.59476599 56.81065833 305.42848012 59.55740356 292.25064087 C62.06326359 280.2465256 64.73141874 268.28757262 67.50027466 256.34161377 C70.14397541 244.92285332 72.61500826 233.47544367 75 222 C77.53541689 209.80078221 80.18904667 197.63866994 83 185.5 C85.75233733 173.57805246 88.44415711 161.64411382 91.01196289 149.6809082 C91.37599471 147.99086424 91.74345163 146.30155404 92.11450195 144.61303711 C92.6290035 142.26742573 93.13062384 139.91941518 93.62890625 137.5703125 C93.86100548 136.52902695 93.86100548 136.52902695 94.09779358 135.46670532 C94.88509188 131.67546932 95.18378774 128.71518912 94 125 C92.25080276 122.44175596 92.25080276 122.44175596 90 119.9375 C86.86711603 116.23589217 83.82855498 112.51873301 80.9375 108.625 C76.7947941 103.04855762 72.59202464 97.52044123 68.375 92 C63.00401347 84.96517183 57.67123903 77.90374513 52.375 70.8125 C46.9470267 63.54855257 41.42606127 56.36431703 35.84277344 49.21923828 C32.01936426 44.32314438 28.26136153 39.38472368 24.55078125 34.40234375 C20.3318086 28.75399239 16.03638118 23.16293017 11.75830078 17.55932617 C10.45395002 15.85002782 9.15116025 14.13953691 7.85009766 12.42773438 C6.63259133 10.83009873 5.40846363 9.23748379 4.17724609 7.65039062 C3.62762207 6.93560547 3.07799805 6.22082031 2.51171875 5.484375 C2.02533936 4.85756836 1.53895996 4.23076172 1.0378418 3.58496094 C0 2 0 2 0 0 Z M53 27 C54.39293568 29.84907732 55.88188728 32.35898609 57.765625 34.9140625 C58.31855225 35.66550537 58.87147949 36.41694824 59.44116211 37.19116211 C60.03807861 37.99432861 60.63499512 38.79749512 61.25 39.625 C61.87334229 40.46748291 62.49668457 41.30996582 63.13891602 42.17797852 C67.89363385 48.57674504 72.75949848 54.88246999 77.67675781 61.15673828 C82.67409615 67.5443867 87.5366412 74.02711161 92.38549805 80.52783203 C96.60761704 86.17596472 100.90487382 91.75863328 105.25 97.3125 C106.39238215 98.78480327 107.53431748 100.25745335 108.67578125 101.73046875 C110.8754322 104.56816671 113.105754 107.37767788 115.35546875 110.17578125 C116.38380645 111.4914112 117.41119914 112.80778053 118.4375 114.125 C118.91670898 114.70419189 119.39591797 115.28338379 119.88964844 115.88012695 C122.34031398 119.08125102 123.02639096 120.65462755 122.71582031 124.71899414 C122.08350998 128.81860348 121.25815658 132.87621632 120.36328125 136.92578125 C120.20357849 137.66171005 120.04387573 138.39763885 119.8793335 139.15586853 C119.36051083 141.54218057 118.83660901 143.92734396 118.3125 146.3125 C117.94628375 147.99115654 117.58031979 149.66986813 117.21459961 151.34863281 C114.95418794 161.71002293 112.66547151 172.06516365 110.35620117 182.41577148 C108.09217737 192.56440291 105.85514148 202.71887852 103.625 212.875 C103.43353394 213.74686951 103.24206787 214.61873901 103.0447998 215.51702881 C100.104785 228.91080713 97.1982658 242.31161139 94.30764771 255.71612549 C92.02599287 266.29358196 89.71098248 276.86279828 87.35424805 287.42382812 C85.09128385 297.56986542 82.85454908 307.72157631 80.625 317.875 C80.43353394 318.74686951 80.24206787 319.61873901 80.0447998 320.51702881 C77.10508213 333.90945351 74.19822262 347.3087729 71.30865479 360.71209717 C69.00861859 371.37825159 66.66908796 382.03462478 64.28833008 392.68310547 C62.14808444 402.27929596 60.07156281 411.88880891 58 421.5 C55.44426288 433.35626014 52.85890118 445.20490901 50.21655273 457.04223633 C48.31044434 465.58599618 46.43093701 474.13543658 44.5625 482.6875 C44.4162619 483.35681549 44.2700238 484.02613098 44.11935425 484.71572876 C43.37633842 488.11690503 42.63365358 491.51815348 41.89111328 494.91943359 C40.57476265 500.94837347 39.25553226 506.97668332 37.93649292 513.0050354 C37.20754151 516.33666392 36.47878048 519.66833409 35.75 523 C35.45833424 524.33333353 35.16666758 525.66666687 34.875 527 C34.730625 527.66 34.58625 528.32 34.4375 529 C33.125 535 33.125 535 32.68748474 537.00004578 C32.39585559 538.3332236 32.10423978 539.66640435 31.81263733 540.99958801 C31.08300618 544.3353247 30.35314234 547.67101015 29.62280273 551.0065918 C28.31560445 556.97785173 27.00992662 562.9494186 25.71318054 568.92295837 C24.99745895 572.21972751 24.28034147 575.51619184 23.5625 578.8125 C23.42006866 579.46666901 23.27763733 580.12083801 23.13088989 580.79483032 C20.64639519 592.18963521 18.04390287 603.55559245 15.42263794 614.91958618 C12.89264285 625.9052062 10.53760544 636.91565561 8.29760742 647.96459961 C5.80591706 660.15418224 3.01746097 672.27295729 0.21716309 684.39453125 C-0.24979618 686.41585681 -0.71573991 688.43741461 -1.18164062 690.45898438 C-1.67570361 692.59677959 -2.17332585 694.73376275 -2.67773438 696.86914062 C-3.49132277 700.37185276 -4 703.38148302 -4 707 C48.69831916 707.06866041 101.39663379 707.12152589 154.09498888 707.15319599 C160.31593016 707.15694813 166.53687135 707.16083109 172.7578125 707.16479492 C174.61553554 707.16597532 174.61553554 707.16597532 176.51078834 707.16717956 C196.56644471 707.18023494 216.62207529 707.20388953 236.67771636 707.23145839 C257.25528885 707.25950888 277.83284783 707.27617551 298.41043866 707.28226548 C311.10880531 707.28638265 323.80709907 707.29938845 336.50544329 707.3237494 C345.21212016 707.33960217 353.91875933 707.34440139 362.62544958 707.34050413 C367.64939949 707.33858189 372.67322199 707.34153731 377.69714928 707.35761642 C382.29912518 707.37223743 386.90088824 707.37293803 391.50287403 707.36269668 C393.16522559 707.3614313 394.82759055 707.36521814 396.48991583 707.37464955 C420.68535454 707.50391181 439.22667611 696.04857116 456.4375 679.6328125 C464.3061627 671.54824137 468.64636428 664.00585394 470.83203125 652.91796875 C470.98894943 652.15551346 471.14586761 651.39305817 471.30754089 650.60749817 C471.64199731 648.97961377 471.97324272 647.35106683 472.30151367 645.72192383 C473.17106706 641.40905537 474.06502389 637.10123917 474.95703125 632.79296875 C475.2214653 631.51170609 475.2214653 631.51170609 475.49124146 630.20455933 C476.89203553 623.44485932 478.40899043 616.71753467 480 610 C482.50774648 599.36815494 484.77178814 588.6930355 487 578 C489.51485709 565.93352078 492.11929005 553.89890147 494.9284668 541.89672852 C496.65710143 534.51031786 498.30453514 527.11041346 499.90405273 519.69506836 C501.99554152 509.999784 504.12148108 500.3122079 506.25 490.625 C506.63965713 488.85123889 507.0293055 487.07747585 507.41894531 485.30371094 C508.01438132 482.59310185 508.60982947 479.88249543 509.20535278 477.17190552 C510.57225902 470.949625 511.93704693 464.72688264 513.30078125 458.50390625 C514.05455453 455.06507501 514.80846844 451.62627462 515.5625 448.1875 C515.74837677 447.3397702 515.93425354 446.49204041 516.12576294 445.61862183 C518.62394377 434.22873508 521.14320746 422.84372885 523.68035889 411.46246338 C526.38833809 399.31485127 529.05317036 387.15995055 531.64575195 374.98706055 C533.85128717 364.6497618 536.10780106 354.32392891 538.375 344 C538.6621991 342.69207489 538.6621991 342.69207489 538.9552002 341.35772705 C541.84417589 328.20739379 544.76327586 315.06390333 547.69235229 301.92245483 C550.06220515 291.28432995 552.37804466 280.63604526 554.64794922 269.97607422 C556.83022497 259.74620348 559.0671206 249.5286788 561.3125 239.3125 C561.50301941 238.4452832 561.69353882 237.57806641 561.88983154 236.68457031 C563.83136992 227.84770197 565.77618276 219.01156239 567.72674561 210.17668152 C568.67318947 205.88888351 569.61820533 201.6007718 570.5625 197.3125 C570.74913208 196.46521332 570.93576416 195.61792664 571.12805176 194.7449646 C573.84748319 182.38678699 576.47932006 170.01230144 579.0625 157.625 C582.37290637 141.75243053 585.93578362 125.94636386 589.58746338 110.14927673 C591.50590964 101.83418708 593.34781208 93.50234747 595.18603516 85.16918945 C595.41210449 84.145271 595.63817383 83.12135254 595.87109375 82.06640625 C596.06630615 81.17896729 596.26151855 80.29152832 596.46264648 79.37719727 C596.79924997 77.88809768 597.15518077 76.40309144 597.53930664 74.92553711 C599.85615601 65.24191707 595.8399674 58.1315161 591 50 C584.70087199 40.24872978 574.79458702 31.48147687 564 27 C561.08850779 26.58684415 558.21804617 26.60207115 555.28123665 26.63085651 C554.41155463 26.62739498 553.54187261 26.62393345 552.64583659 26.62036702 C549.7233639 26.61240835 546.80138422 26.6258999 543.87893677 26.63923645 C541.76598427 26.63792852 539.65303224 26.63530234 537.54008281 26.63146895 C531.72737259 26.62474955 525.91482768 26.63677677 520.10213852 26.65180314 C513.83633677 26.66473821 507.57054462 26.66037583 501.30473328 26.65809631 C490.44662883 26.65652198 479.58859096 26.66584335 468.73050308 26.68280983 C457.34224314 26.70055913 445.95400473 26.71210731 434.56573105 26.71536827 C433.85772028 26.71557449 433.14970952 26.71578071 432.42024388 26.71599318 C428.8246347 26.71700817 425.2290255 26.71791232 421.63341628 26.7187738 C396.16379932 26.72507552 370.69421049 26.74528896 345.22460938 26.77368164 C320.48079579 26.80123341 295.73698991 26.822485 270.99316406 26.83520508 C269.84915394 26.83579695 269.84915394 26.83579695 268.68203251 26.83640077 C261.02297292 26.84035632 253.36391327 26.84418376 245.70485358 26.84791735 C230.10237878 26.85552605 214.49990449 26.8639898 198.89743042 26.87297058 C197.82135877 26.87358839 197.82135877 26.87358839 196.7235483 26.87421867 C148.81568691 26.90182202 100.90784206 26.94942016 53 27 Z " fill="#FAFAFA" transform="translate(428,570)"/>
<path d="M0 0 C39.93 0 79.86 0 121 0 C118.75382633 13.47704205 118.75382633 13.47704205 117.265625 19.80859375 C116.93877773 21.213536 116.61195583 22.61848415 116.28515625 24.0234375 C116.03209717 25.10189941 116.03209717 25.10189941 115.77392578 26.20214844 C113.02346522 37.93710507 110.39029738 49.68564769 108 61.5 C105.67737691 72.96216092 103.11620109 84.35626435 100.47949219 95.74902344 C98.19244632 105.64232732 96.01714166 115.54729005 94 125.5 C91.67695013 136.96208124 89.11620393 148.35625207 86.47949219 159.74902344 C84.19244632 169.64232732 82.01714166 179.54729005 80 189.5 C77.67695013 200.96208124 75.11620393 212.35625207 72.47949219 223.74902344 C70.19244632 233.64232732 68.01714166 243.54729005 66 253.5 C63.67695013 264.96208124 61.11620393 276.35625207 58.47949219 287.74902344 C56.19244632 297.64232732 54.01714166 307.54729005 52 317.5 C49.67791146 328.95733798 47.11930781 340.34711988 44.48251343 351.73492432 C41.87698102 362.99977965 39.4232944 374.28209642 37.16601562 385.62304688 C35.04450498 396.16650611 32.49807573 406.50808192 30 417 C-9.93 417 -49.86 417 -91 417 C-87.55489894 398.62612769 -87.55489894 398.62612769 -86.0546875 391.91015625 C-85.88373062 391.13472473 -85.71277374 390.35929321 -85.53663635 389.56036377 C-85.17299311 387.91244208 -84.80822048 386.26476923 -84.44235229 384.61734009 C-83.85509663 381.97287326 -83.2710713 379.32770906 -82.68774414 376.68237305 C-81.66321028 372.03808173 -80.63621654 367.3943384 -79.60858154 362.75073242 C-77.88028717 354.93900134 -76.15698365 347.12617493 -74.4375 339.3125 C-74.2518045 338.46929199 -74.06610901 337.62608398 -73.87478638 336.75732422 C-70.93626646 323.40322948 -68.10113719 310.02933056 -65.30783081 296.64419556 C-63.0962483 286.05732698 -60.76974193 275.50819842 -58.28833008 264.98071289 C-56.03807029 255.35220474 -54.01686178 245.67942297 -52 236 C-49.56094158 224.29435004 -47.03291623 212.62313915 -44.2890625 200.984375 C-42.03888094 191.35456573 -40.01711719 181.68064874 -38 172 C-35.56094158 160.29435004 -33.03291623 148.62313915 -30.2890625 136.984375 C-28.03888094 127.35456573 -26.01711719 117.68064874 -24 108 C-21.56109189 96.29507137 -19.03464745 84.62419418 -16.2890625 72.98657227 C-14.80057006 66.61996598 -13.40097861 60.23934371 -12.0625 53.83984375 C-11.89226318 53.0259317 -11.72202637 52.21201965 -11.54663086 51.3734436 C-10.71306649 47.37859516 -9.88581775 43.38253991 -9.06640625 39.38476562 C-6.32832762 26.16586735 -3.15630054 13.15125226 0 0 Z " fill="#FCFCFC" transform="translate(715,728)"/>
<path d="M0 0 C22.11 0 44.22 0 67 0 C65.87626559 12.36107848 65.87626559 12.36107848 64.80078125 16.7421875 C64.56423828 17.73017334 64.32769531 18.71815918 64.08398438 19.73608398 C63.82939453 20.77192627 63.57480469 21.80776855 63.3125 22.875 C61.04927414 32.36698569 58.94570092 41.87536598 57 51.4375 C54.89653691 61.74003721 52.69254226 72.01328487 50.390625 82.27319336 C48.2106933 92.00493097 46.10024359 101.75083703 44 111.5 C41.71726779 122.09008028 39.42217812 132.67673189 37.0625 143.25 C34.56223638 154.45373479 32.0873087 165.66287229 29.625 176.875 C29.43286926 177.7495282 29.24073853 178.6240564 29.04278564 179.52508545 C26.98653915 188.88803186 24.93991614 198.25289615 22.92578125 207.625 C22.67708786 208.78190842 22.67708786 208.78190842 22.42337036 209.96218872 C22.09226365 211.50264461 21.76115809 213.04310074 21.43005371 214.58355713 C21.26751099 215.33973328 21.10496826 216.09590942 20.9375 216.875 C20.77511841 217.63069275 20.61273682 218.3863855 20.44543457 219.16497803 C17.85595368 231.2010782 15.13745065 243.20406571 12.36697388 255.199646 C9.80654872 266.30025385 7.41811659 277.4265733 5.14355469 288.58984375 C3.32671017 297.48967753 1.39310394 306.35832746 -0.59887695 315.22045898 C-2.13964228 322.08934855 -3.64461441 328.9646882 -5.12109375 335.84765625 C-5.30267029 336.69306976 -5.48424683 337.53848328 -5.67132568 338.40951538 C-6.39916673 341.7996841 -7.12670244 345.18990483 -7.84881592 348.58129883 C-8.35135058 350.94141384 -8.85706517 353.30082859 -9.36328125 355.66015625 C-9.51405624 356.37341568 -9.66483124 357.08667511 -9.82017517 357.82154846 C-10.88652544 362.77305088 -10.88652544 362.77305088 -12 365 C-34.44 365 -56.88 365 -80 365 C-76.56638492 347.83192459 -76.56638492 347.83192459 -75.01953125 340.90234375 C-74.66051588 339.27938871 -74.30154982 337.65642276 -73.94262695 336.03344727 C-73.7585025 335.20338165 -73.57437805 334.37331604 -73.38467407 333.51809692 C-70.10317041 318.71798858 -66.90719665 303.90274999 -63.8125 289.0625 C-61.43546082 277.66848868 -58.95880476 266.31030479 -56.28833008 254.98071289 C-54.03807029 245.35220474 -52.01686178 235.67942297 -50 226 C-47.56094158 214.29435004 -45.03291623 202.62313915 -42.2890625 190.984375 C-40.03888094 181.35456573 -38.01711719 171.68064874 -36 162 C-33.56094158 150.29435004 -31.03291623 138.62313915 -28.2890625 126.984375 C-26.03888094 117.35456573 -24.01711719 107.68064874 -22 98 C-19.5626242 86.30242532 -17.04023188 74.63820362 -14.29345703 63.00854492 C-12.77487786 56.51843902 -11.35454918 50.01261374 -9.9921875 43.48828125 C-9.81721741 42.65070282 -9.64224731 41.81312439 -9.4619751 40.95016479 C-8.59764997 36.80351518 -7.74009935 32.65557569 -6.890625 28.50585938 C-6.5703704 26.95832135 -6.25006019 25.41079483 -5.9296875 23.86328125 C-5.79440643 23.1921077 -5.65912537 22.52093414 -5.51974487 21.829422 C-3.9844505 14.44655116 -1.95424454 7.32841702 0 0 Z " fill="#010101" transform="translate(736,754)"/>
</svg>
